<svg width="9" height="18" viewBox="0 0 9 18" fill="none" xmlns="http://www.w3.org/2000/svg">
<path d="M8.44444 3.69622H5.77778C5.28686 3.69622 4.88889 4.09916 4.88889 4.59622V7.29622H8.44444C8.54554 7.29394 8.64142 7.34157 8.70153 7.42391C8.76164 7.50624 8.77847 7.61302 8.74666 7.71022L8.08889 9.69022C8.02827 9.87194 7.86055 9.99479 7.67111 9.99622H4.88889V16.7462C4.88889 16.9947 4.6899 17.1962 4.44444 17.1962H2.22222C1.97676 17.1962 1.77778 16.9947 1.77778 16.7462V9.99622H0.444444C0.198984 9.99622 0 9.79474 0 9.54622V7.74622C0 7.49769 0.198984 7.29622 0.444444 7.29622H1.77778V4.59622C1.77778 2.60799 3.36965 0.996216 5.33333 0.996216H8.44444C8.6899 0.996216 8.88889 1.19769 8.88889 1.44622V3.24622C8.88889 3.49474 8.6899 3.69622 8.44444 3.69622Z" fill="#7B7B7B"/>
</svg>
