<svg width="18" height="17" viewBox="0 0 18 17" fill="none" xmlns="http://www.w3.org/2000/svg">
<path fill-rule="evenodd" clip-rule="evenodd" d="M0 1.90588C0 0.853293 0.89543 0 2 0C2.53043 0 3.03914 0.200798 3.41421 0.558221C3.78929 0.915643 4 1.40041 4 1.90588C4 2.95847 3.10457 3.81177 2 3.81177C0.89543 3.81177 0 2.95847 0 1.90588ZM17.5 9.92014C17.5345 7.85692 16.0574 6.04892 13.95 5.57472C12.5377 5.28493 11.0657 5.66493 10 6.59437V6.19413C10 5.93098 9.77614 5.71766 9.5 5.71766H7C6.72386 5.71766 6.5 5.93098 6.5 6.19413V15.7236C6.5 15.9867 6.72386 16.2 7 16.2H9.5C9.77614 16.2 10 15.9867 10 15.7236V10.349C9.97531 9.39194 10.6753 8.55616 11.66 8.36684C12.2464 8.27039 12.8473 8.42774 13.2997 8.79615C13.752 9.16455 14.0087 9.70576 14 10.2727V15.7236C14 15.9867 14.2239 16.2 14.5 16.2H17C17.2761 16.2 17.5 15.9867 17.5 15.7236V9.92014ZM4 6.19412V15.7236C4 15.9867 3.77614 16.2 3.5 16.2H1C0.723858 16.2 0.5 15.9867 0.5 15.7236V6.19412C0.5 5.93097 0.723858 5.71765 1 5.71765H3.5C3.77614 5.71765 4 5.93097 4 6.19412Z" fill="#7B7B7B"/>
</svg>
