<svg width="20" height="20" viewBox="0 0 20 20" fill="none" xmlns="http://www.w3.org/2000/svg">
<path d="M15.5541 19.4234C13.7167 19.4219 11.9081 18.993 10.2879 18.1747L9.78795 17.9123C6.33356 16.1582 3.50154 13.4833 1.64429 10.2207L1.36654 9.74848C0.477536 8.20949 0.00791893 6.48576 6.98594e-07 4.73263V4.02957C-0.000468563 3.47023 0.23549 2.93385 0.655493 2.53951L2.53309 0.766123C2.71543 0.592559 2.97283 0.508903 3.22964 0.539737C3.48646 0.57057 3.71351 0.712391 3.84407 0.923524L6.34383 4.97398C6.59662 5.38625 6.52363 5.90763 6.16607 6.24368L4.06628 8.22693C3.8919 8.38983 3.85126 8.64146 3.96628 8.84605L4.35514 9.53861C5.75171 11.982 7.8762 13.9849 10.4657 15.2995L11.1989 15.6773C11.4155 15.7859 11.6819 15.7475 11.8544 15.5828L13.9542 13.5996C14.31 13.2619 14.862 13.1929 15.2985 13.4317L19.587 15.7927C19.8105 15.916 19.9607 16.1305 19.9933 16.373C20.026 16.6156 19.9374 16.8587 19.7537 17.0309L17.8761 18.8043C17.4585 19.201 16.8906 19.4238 16.2984 19.4234H15.5541Z" fill="#7B7B7B"/>
</svg>
