<svg width="19" height="18" viewBox="0 0 19 18" fill="none" xmlns="http://www.w3.org/2000/svg">
<path d="M18.796 3.34015C18.3103 3.9961 17.7232 4.5683 17.0574 5.03464C17.0574 5.20599 17.0574 5.37735 17.0574 5.55822C17.0628 8.66997 15.8352 11.6537 13.6498 13.8406C11.4644 16.0275 8.50416 17.2345 5.43258 17.1912C3.65683 17.1972 1.90382 16.7866 0.310872 15.9917C0.22498 15.9537 0.169581 15.8677 0.169908 15.7728V15.668C0.169908 15.5313 0.279301 15.4205 0.414246 15.4205C2.15976 15.3623 3.84301 14.7495 5.22583 13.6689C3.6459 13.6367 2.22436 12.6891 1.57015 11.2319C1.53711 11.1523 1.5474 11.061 1.5973 10.991C1.64721 10.921 1.72952 10.8824 1.81449 10.8892C2.29467 10.9381 2.77964 10.8928 3.24293 10.7559C1.49881 10.3894 0.188305 8.92331 0.000750258 7.12895C-0.00591569 7.04288 0.0321829 6.9595 0.101282 6.90895C0.170382 6.85839 0.260494 6.84797 0.339065 6.88144C0.80711 7.09055 1.31236 7.20069 1.82389 7.20511C0.29563 6.1895 -0.364478 4.25777 0.216896 2.50242C0.276907 2.33185 0.421084 2.20585 0.596445 2.17071C0.771806 2.13558 0.952482 2.19649 1.07208 2.33107C3.13437 4.5534 5.96799 5.87768 8.97548 6.02468C8.89845 5.71344 8.86056 5.39359 8.86271 5.07272C8.89084 3.39025 9.919 1.89147 11.4658 1.27806C13.0127 0.664645 14.7721 1.05799 15.9203 2.27395C16.703 2.12298 17.4597 1.85678 18.1664 1.48383C18.2181 1.45111 18.2838 1.45111 18.3355 1.48383C18.3678 1.53626 18.3678 1.60275 18.3355 1.65518C17.9933 2.44874 17.4151 3.11432 16.6815 3.5591C17.3239 3.48368 17.9549 3.33027 18.5611 3.10216C18.6121 3.06698 18.6792 3.06698 18.7302 3.10216C18.773 3.12197 18.8049 3.15984 18.8176 3.2057C18.8303 3.25155 18.8224 3.30074 18.796 3.34015Z" fill="#7B7B7B"/>
</svg>
